<?xml version="1.0" encoding="UTF-8"?>
<!DOCTYPE svg PUBLIC "-//W3C//DTD SVG 1.1//EN" "http://www.w3.org/Graphics/SVG/1.1/DTD/svg11.dtd">
<svg xmlns="http://www.w3.org/2000/svg" version="1.1" width="1725px" height="3733px" style="shape-rendering:geometricPrecision; text-rendering:geometricPrecision; image-rendering:optimizeQuality; fill-rule:evenodd; clip-rule:evenodd" xmlns:xlink="http://www.w3.org/1999/xlink">
<g><path style="opacity:0.999" fill="#f7be05" d="M 478.5,1883.5 C 480.749,1882.92 482.415,1881.59 483.5,1879.5C 494.838,1869.45 508.171,1865.28 523.5,1867C 547.027,1871.53 561.86,1885.36 568,1908.5C 571.046,1941.62 556.546,1962.12 524.5,1970C 488.989,1971.24 468.989,1954.24 464.5,1919C 464.911,1905.37 469.578,1893.53 478.5,1883.5 Z"/></g>
<g><path style="opacity:0.839" fill="#b08c19" d="M 483.5,1879.5 C 482.415,1881.59 480.749,1882.92 478.5,1883.5C 479.585,1881.41 481.251,1880.08 483.5,1879.5 Z"/></g>
<g><path style="opacity:1" fill="#fcb801" d="M 887.5,2012.5 C 888.497,2178.46 888.831,2344.46 888.5,2510.5C 826.5,2510.5 764.5,2510.5 702.5,2510.5C 703.165,2335.16 702.499,2160.16 700.5,1985.5C 767.434,1962.87 829.768,1971.87 887.5,2012.5 Z"/></g>
<g><path style="opacity:1" fill="#fabe03" d="M 700.5,1985.5 C 702.499,2160.16 703.165,2335.16 702.5,2510.5C 634.833,2510.5 567.167,2510.5 499.5,2510.5C 499.5,2361.83 499.5,2213.17 499.5,2064.5C 541.235,2079.54 579.235,2073.21 613.5,2045.5C 616.833,2044.17 619.167,2041.83 620.5,2038.5C 642.795,2014.34 669.462,1996.68 700.5,1985.5 Z"/></g>
<g><path style="opacity:1" fill="#f7c906" d="M 278.5,2001.5 C 284.833,2001.5 291.167,2001.5 297.5,2001.5C 297.5,2171.17 297.5,2340.83 297.5,2510.5C 246.833,2510.5 196.167,2510.5 145.5,2510.5C 145.833,2351.67 145.5,2193 144.5,2034.5C 186.737,2014.11 231.403,2003.11 278.5,2001.5 Z"/></g>
<g><path style="opacity:1" fill="#f8c504" d="M 278.5,2001.5 C 338.137,1998.56 394.804,2010.23 448.5,2036.5C 448.5,2194.5 448.5,2352.5 448.5,2510.5C 398.167,2510.5 347.833,2510.5 297.5,2510.5C 297.5,2340.83 297.5,2171.17 297.5,2001.5C 291.167,2001.5 284.833,2001.5 278.5,2001.5 Z"/></g>
<g><path style="opacity:1" fill="#fdb300" d="M 887.5,2012.5 C 930.907,2045.61 957.241,2089.28 966.5,2143.5C 971.713,2176.98 968.546,2209.64 957,2241.5C 946.568,2280.02 954.234,2314.35 980,2344.5C 1008.27,2370.08 1030.44,2400.08 1046.5,2434.5C 1056.91,2458.82 1063.58,2484.15 1066.5,2510.5C 1007.17,2510.5 947.833,2510.5 888.5,2510.5C 888.831,2344.46 888.497,2178.46 887.5,2012.5 Z"/></g>
<g><path style="opacity:1" fill="#f6cc07" d="M 144.5,2034.5 C 145.5,2193 145.833,2351.67 145.5,2510.5C 122.833,2510.5 100.167,2510.5 77.5,2510.5C 77.8329,2365.67 77.4996,2221 76.5,2076.5C 97.3077,2059.73 119.974,2045.73 144.5,2034.5 Z"/></g>
<g><path style="opacity:1" fill="#f9c204" d="M 448.5,2036.5 C 466.021,2045.09 483.021,2054.42 499.5,2064.5C 499.5,2213.17 499.5,2361.83 499.5,2510.5C 482.5,2510.5 465.5,2510.5 448.5,2510.5C 448.5,2352.5 448.5,2194.5 448.5,2036.5 Z"/></g>
<g><path style="opacity:0.847" fill="#b28a17" d="M 620.5,2038.5 C 619.167,2041.83 616.833,2044.17 613.5,2045.5C 615.5,2042.83 617.833,2040.5 620.5,2038.5 Z"/></g>
<g><path style="opacity:1" fill="#f5cf07" d="M 76.5,2076.5 C 77.4996,2221 77.8329,2365.67 77.5,2510.5C 52.1667,2510.5 26.8333,2510.5 1.5,2510.5C 1.33333,2392.5 1.5,2274.5 2,2156.5C 22.4624,2125.87 47.2958,2099.2 76.5,2076.5 Z"/></g>
<g><path style="opacity:1" fill="#f6bc17" d="M 1724.5,2157.5 C 1724.5,2275.17 1724.5,2392.83 1724.5,2510.5C 1669.5,2510.5 1614.5,2510.5 1559.5,2510.5C 1559.5,2376.83 1559.5,2243.17 1559.5,2109.5C 1557.5,2109.5 1555.5,2109.5 1553.5,2109.5C 1616.56,2103.85 1673.56,2119.85 1724.5,2157.5 Z"/></g>
<g><path style="opacity:1" fill="#f7ba13" d="M 1553.5,2109.5 C 1555.5,2109.5 1557.5,2109.5 1559.5,2109.5C 1559.5,2243.17 1559.5,2376.83 1559.5,2510.5C 1510.5,2510.5 1461.5,2510.5 1412.5,2510.5C 1412.83,2397.67 1412.5,2285 1411.5,2172.5C 1451.62,2135.79 1498.95,2114.79 1553.5,2109.5 Z"/></g>
<g><path style="opacity:1" fill="#fbb409" d="M 1041.5,2144.5 C 1042.92,2145.45 1044.59,2145.78 1046.5,2145.5C 1046.17,2153.35 1046.51,2161.02 1047.5,2168.5C 1009.29,2191.6 994.461,2225.26 1003,2269.5C 1010.26,2294.06 1025.09,2312.39 1047.5,2324.5C 1046.5,2361 1046.17,2397.66 1046.5,2434.5C 1030.44,2400.08 1008.27,2370.08 980,2344.5C 954.234,2314.35 946.568,2280.02 957,2241.5C 968.546,2209.64 971.713,2176.98 966.5,2143.5C 991.483,2141.99 1016.48,2142.32 1041.5,2144.5 Z"/></g>
<g><path style="opacity:1" fill="#feb000" d="M 1156.5,2299.5 C 1126.3,2333.68 1089.97,2342.01 1047.5,2324.5C 1025.09,2312.39 1010.26,2294.06 1003,2269.5C 994.461,2225.26 1009.29,2191.6 1047.5,2168.5C 1088.08,2151.71 1123.58,2159.05 1154,2190.5C 1180.04,2226.28 1180.88,2262.61 1156.5,2299.5 Z"/></g>
<g><path style="opacity:1" fill="#f8b810" d="M 1411.5,2172.5 C 1412.5,2285 1412.83,2397.67 1412.5,2510.5C 1363.83,2510.5 1315.17,2510.5 1266.5,2510.5C 1266.5,2415.5 1266.5,2320.5 1266.5,2225.5C 1307.6,2234.71 1345.27,2227.21 1379.5,2203C 1390.34,2192.99 1401.01,2182.83 1411.5,2172.5 Z"/></g>
<g><path style="opacity:1" fill="#f9b60e" d="M 1041.5,2144.5 C 1113.68,2152.39 1180.02,2176.22 1240.5,2216C 1248.94,2219.87 1257.6,2223.03 1266.5,2225.5C 1266.5,2320.5 1266.5,2415.5 1266.5,2510.5C 1229.83,2510.5 1193.17,2510.5 1156.5,2510.5C 1156.5,2440.17 1156.5,2369.83 1156.5,2299.5C 1180.88,2262.61 1180.04,2226.28 1154,2190.5C 1123.58,2159.05 1088.08,2151.71 1047.5,2168.5C 1046.51,2161.02 1046.17,2153.35 1046.5,2145.5C 1044.59,2145.78 1042.92,2145.45 1041.5,2144.5 Z"/></g>
<g><path style="opacity:1" fill="#fbb50b" d="M 1156.5,2299.5 C 1156.5,2369.83 1156.5,2440.17 1156.5,2510.5C 1126.5,2510.5 1096.5,2510.5 1066.5,2510.5C 1063.58,2484.15 1056.91,2458.82 1046.5,2434.5C 1046.17,2397.66 1046.5,2361 1047.5,2324.5C 1089.97,2342.01 1126.3,2333.68 1156.5,2299.5 Z"/></g>
</svg>
